<?xml version="1.0" standalone="no"?>
<!DOCTYPE svg PUBLIC "-//W3C//DTD SVG 20010904//EN"
 "http://www.w3.org/TR/2001/REC-SVG-20010904/DTD/svg10.dtd">
<svg version="1.0" xmlns="http://www.w3.org/2000/svg"
 width="760.000000pt" height="760.000000pt" viewBox="0 0 760.000000 760.000000"
 preserveAspectRatio="xMidYMid meet">
<metadata>
Created by potrace 1.11, written by Peter Selinger 2001-2013
</metadata>
<g transform="translate(0.000000,760.000000) scale(0.100000,-0.100000)"
fill="#000000" stroke="none">
<path d="M1820 6945 c-18 -22 -100 -167 -100 -177 0 -4 -4 -8 -10 -8 -5 0 -10
-6 -10 -14 0 -8 -7 -22 -16 -30 -8 -9 -13 -16 -10 -16 3 0 -10 -25 -29 -55
-19 -30 -35 -56 -35 -58 0 -2 -42 -76 -93 -163 -51 -87 -96 -166 -100 -174 -4
-8 -15 -28 -26 -45 -10 -16 -52 -88 -93 -160 -165 -285 -228 -397 -228 -405 0
-5 -4 -10 -8 -12 -4 -1 -29 -41 -56 -88 -27 -47 -60 -105 -74 -130 -14 -25
-45 -78 -69 -118 -24 -41 -43 -78 -43 -83 0 -5 -3 -9 -7 -9 -5 0 -17 -19 -28
-43 -11 -23 -22 -44 -25 -47 -10 -10 -31 -46 -41 -72 -6 -16 -15 -28 -20 -28
-5 0 -9 -4 -9 -9 0 -9 -91 -173 -100 -181 -4 -3 -17 -25 -29 -50 -12 -25 -35
-66 -51 -92 -15 -25 -39 -66 -53 -90 -31 -55 -165 -288 -204 -353 -16 -27 -32
-57 -36 -65 -5 -8 -13 -24 -20 -35 -7 -11 -28 -47 -47 -80 -19 -33 -42 -72
-50 -86 -8 -14 -34 -60 -58 -102 l-43 -76 26 -41 c14 -23 35 -58 46 -78 59
-106 164 -288 169 -292 4 -3 9 -12 13 -20 3 -8 20 -37 37 -65 16 -27 34 -59
39 -70 5 -11 43 -78 85 -148 42 -71 76 -133 76 -138 0 -5 5 -9 11 -9 5 0 8 -4
4 -9 -3 -5 -1 -12 4 -15 5 -3 35 -52 66 -108 32 -57 65 -111 73 -120 8 -10 12
-18 7 -18 -4 0 -3 -6 3 -12 10 -13 201 -338 216 -368 4 -8 17 -32 29 -52 12
-20 60 -103 107 -185 46 -81 88 -149 92 -151 4 -2 8 -7 8 -12 0 -5 23 -48 51
-97 28 -48 59 -101 69 -118 42 -76 92 -161 100 -175 23 -37 100 -172 100 -176
0 -3 42 -73 78 -129 6 -11 15 -27 19 -35 4 -8 24 -43 45 -78 21 -34 38 -64 38
-66 0 -3 27 -50 60 -106 33 -56 60 -106 60 -111 0 -5 5 -9 10 -9 6 0 10 -4 10
-9 0 -5 17 -39 38 -75 l37 -66 1975 0 1975 0 110 192 c61 105 112 196 114 202
2 6 7 13 10 16 6 5 24 35 58 100 10 19 20 37 23 40 5 5 12 17 52 89 11 20 24
41 28 46 4 6 19 30 32 55 26 47 203 354 219 380 49 81 219 382 219 389 0 5 4
11 8 13 5 2 22 28 38 58 47 86 84 150 126 218 21 34 34 62 30 62 -4 0 1 5 11
11 9 5 17 15 17 20 0 8 59 116 110 199 39 66 110 192 110 197 0 4 6 14 14 22
12 15 37 57 82 141 11 19 21 37 24 40 5 5 16 24 57 99 14 25 29 51 33 56 8 10
43 73 76 135 11 19 21 37 24 40 7 7 29 42 37 60 12 25 144 254 154 266 9 11 3
43 -10 54 -5 4 -18 27 -65 115 -6 11 -14 22 -17 25 -3 3 -25 41 -49 85 -24 44
-46 82 -49 85 -5 4 -18 27 -65 115 -6 11 -13 22 -16 25 -3 3 -13 20 -22 38
-10 17 -26 47 -35 64 -10 18 -21 35 -24 38 -3 3 -23 37 -44 75 -20 39 -41 75
-45 80 -4 6 -19 30 -32 55 -14 25 -67 116 -117 204 -50 87 -91 160 -91 162 0
3 -5 10 -10 17 -12 14 -170 285 -170 291 0 3 -21 40 -47 83 -27 43 -55 92 -63
108 -8 17 -18 32 -21 35 -3 3 -21 32 -38 65 -18 33 -55 98 -82 143 -27 46 -49
88 -49 93 0 5 -4 9 -10 9 -5 0 -10 4 -10 10 0 5 -32 64 -71 132 -40 67 -80
137 -90 155 -11 18 -29 50 -41 71 -12 20 -28 48 -35 62 -8 14 -23 39 -33 55
-10 17 -31 52 -45 79 -45 82 -50 91 -56 96 -3 3 -17 25 -30 50 -13 25 -71 127
-129 227 l-105 183 -1971 0 c-1754 0 -1973 -2 -1984 -15z"/>
</g>
</svg>
