<?xml version="1.0" standalone="no"?><!-- Generator: Gravit.io --><svg xmlns="http://www.w3.org/2000/svg" xmlns:xlink="http://www.w3.org/1999/xlink" style="isolation:isolate" viewBox="0 0 375 100" width="375" height="100"><g><path d=" M 111.043 21.727 L 123.782 64.253 L 136.598 21.727 L 149.57 21.727 L 129.88 78.273 L 117.723 78.273 L 98.111 21.727 L 111.043 21.727 Z " fill="rgb(255,255,255)"/><path d=" M 161.176 32.811 L 161.176 59.227 L 154.096 59.227 L 154.096 32.811 L 161.176 32.811 Z  M 153.681 25.975 L 153.681 25.975 L 153.681 25.975 Q 153.681 24.388 154.743 23.362 L 154.743 23.362 L 154.743 23.362 Q 155.805 22.337 157.636 22.337 L 157.636 22.337 L 157.636 22.337 Q 159.442 22.337 160.517 23.362 L 160.517 23.362 L 160.517 23.362 Q 161.591 24.388 161.591 25.975 L 161.591 25.975 L 161.591 25.975 Q 161.591 27.586 160.504 28.611 L 160.504 28.611 L 160.504 28.611 Q 159.418 29.637 157.636 29.637 L 157.636 29.637 L 157.636 29.637 Q 155.854 29.637 154.767 28.611 L 154.767 28.611 L 154.767 28.611 Q 153.681 27.586 153.681 25.975 Z  M 190.79 45.872 L 190.79 46.263 L 190.79 46.263 Q 190.79 52.61 188.08 56.163 L 188.08 56.163 L 188.08 56.163 Q 185.37 59.715 180.512 59.715 L 180.512 59.715 L 180.512 59.715 Q 176.215 59.715 173.651 56.419 L 173.651 56.419 L 173.334 59.227 L 166.986 59.227 L 166.986 21.727 L 174.042 21.727 L 174.042 35.179 L 174.042 35.179 Q 176.483 32.322 180.463 32.322 L 180.463 32.322 L 180.463 32.322 Q 185.297 32.322 188.043 35.875 L 188.043 35.875 L 188.043 35.875 Q 190.79 39.427 190.79 45.872 L 190.79 45.872 Z  M 183.734 45.75 L 183.734 45.75 L 183.734 45.75 Q 183.734 41.746 182.465 39.903 L 182.465 39.903 L 182.465 39.903 Q 181.195 38.06 178.681 38.06 L 178.681 38.06 L 178.681 38.06 Q 175.312 38.06 174.042 40.818 L 174.042 40.818 L 174.042 51.243 L 174.042 51.243 Q 175.336 54.026 178.729 54.026 L 178.729 54.026 L 178.729 54.026 Q 182.147 54.026 183.222 50.657 L 183.222 50.657 L 183.222 50.657 Q 183.734 49.046 183.734 45.75 Z  M 210.077 32.64 L 209.979 39.427 L 209.979 39.427 Q 208.539 39.231 207.44 39.231 L 207.44 39.231 L 207.44 39.231 Q 203.437 39.231 202.191 41.941 L 202.191 41.941 L 202.191 59.227 L 195.136 59.227 L 195.136 32.811 L 201.801 32.811 L 201.996 35.96 L 201.996 35.96 Q 204.12 32.322 207.88 32.322 L 207.88 32.322 L 207.88 32.322 Q 209.052 32.322 210.077 32.64 L 210.077 32.64 Z  M 235.81 59.227 L 228.681 59.227 L 228.681 59.227 Q 228.192 58.274 227.973 56.858 L 227.973 56.858 L 227.973 56.858 Q 225.409 59.715 221.308 59.715 L 221.308 59.715 L 221.308 59.715 Q 217.426 59.715 214.875 57.469 L 214.875 57.469 L 214.875 57.469 Q 212.323 55.223 212.323 51.805 L 212.323 51.805 L 212.323 51.805 Q 212.323 47.605 215.436 45.359 L 215.436 45.359 L 215.436 45.359 Q 218.549 43.113 224.433 43.089 L 224.433 43.089 L 227.68 43.089 L 227.68 41.575 L 227.68 41.575 Q 227.68 39.744 226.74 38.646 L 226.74 38.646 L 226.74 38.646 Q 225.8 37.547 223.773 37.547 L 223.773 37.547 L 223.773 37.547 Q 221.991 37.547 220.978 38.401 L 220.978 38.401 L 220.978 38.401 Q 219.965 39.256 219.965 40.745 L 219.965 40.745 L 212.909 40.745 L 212.909 40.745 Q 212.909 38.45 214.325 36.497 L 214.325 36.497 L 214.325 36.497 Q 215.741 34.544 218.329 33.433 L 218.329 33.433 L 218.329 33.433 Q 220.917 32.322 224.14 32.322 L 224.14 32.322 L 224.14 32.322 Q 229.022 32.322 231.891 34.776 L 231.891 34.776 L 231.891 34.776 Q 234.76 37.229 234.76 41.673 L 234.76 41.673 L 234.76 53.123 L 234.76 53.123 Q 234.784 56.883 235.81 58.812 L 235.81 58.812 L 235.81 59.227 Z  M 222.846 54.319 L 222.846 54.319 L 222.846 54.319 Q 224.408 54.319 225.727 53.624 L 225.727 53.624 L 225.727 53.624 Q 227.045 52.928 227.68 51.756 L 227.68 51.756 L 227.68 47.215 L 225.043 47.215 L 225.043 47.215 Q 219.745 47.215 219.403 50.877 L 219.403 50.877 L 219.379 51.292 L 219.379 51.292 Q 219.379 52.61 220.307 53.465 L 220.307 53.465 L 220.307 53.465 Q 221.234 54.319 222.846 54.319 Z  M 241.571 26.316 L 248.627 26.316 L 248.627 32.811 L 253.144 32.811 L 253.144 37.986 L 248.627 37.986 L 248.627 51.17 L 248.627 51.17 Q 248.627 52.635 249.188 53.27 L 249.188 53.27 L 249.188 53.27 Q 249.75 53.904 251.337 53.904 L 251.337 53.904 L 251.337 53.904 Q 252.509 53.904 253.412 53.733 L 253.412 53.733 L 253.412 59.08 L 253.412 59.08 Q 251.337 59.715 249.14 59.715 L 249.14 59.715 L 249.14 59.715 Q 241.718 59.715 241.571 52.22 L 241.571 52.22 L 241.571 37.986 L 237.714 37.986 L 237.714 32.811 L 241.571 32.811 L 241.571 26.316 Z  M 255.976 46.092 L 255.976 45.774 L 255.976 45.774 Q 255.976 41.844 257.489 38.768 L 257.489 38.768 L 257.489 38.768 Q 259.003 35.691 261.847 34.007 L 261.847 34.007 L 261.847 34.007 Q 264.691 32.322 268.451 32.322 L 268.451 32.322 L 268.451 32.322 Q 273.798 32.322 277.179 35.594 L 277.179 35.594 L 277.179 35.594 Q 280.561 38.865 280.951 44.48 L 280.951 44.48 L 281 46.287 L 281 46.287 Q 281 52.366 277.606 56.041 L 277.606 56.041 L 277.606 56.041 Q 274.213 59.715 268.5 59.715 L 268.5 59.715 L 268.5 59.715 Q 262.787 59.715 259.381 56.053 L 259.381 56.053 L 259.381 56.053 Q 255.976 52.391 255.976 46.092 L 255.976 46.092 Z  M 263.031 46.287 L 263.031 46.287 L 263.031 46.287 Q 263.031 50.047 264.447 52.037 L 264.447 52.037 L 264.447 52.037 Q 265.863 54.026 268.5 54.026 L 268.5 54.026 L 268.5 54.026 Q 271.063 54.026 272.504 52.061 L 272.504 52.061 L 272.504 52.061 Q 273.944 50.096 273.944 45.774 L 273.944 45.774 L 273.944 45.774 Q 273.944 42.088 272.504 40.062 L 272.504 40.062 L 272.504 40.062 Q 271.063 38.035 268.451 38.035 L 268.451 38.035 L 268.451 38.035 Q 265.863 38.035 264.447 40.049 L 264.447 40.049 L 264.447 40.049 Q 263.031 42.063 263.031 46.287 Z " fill-rule="evenodd" fill="rgb(255,255,255)"/></g></svg>