<?xml version="1.0" standalone="no"?><!-- Generator: Gravit.io --><svg xmlns="http://www.w3.org/2000/svg" xmlns:xlink="http://www.w3.org/1999/xlink" style="isolation:isolate" viewBox="98.111 21.727 182.889 56.547" width="182.889" height="56.547"><g><path d=" M 161.176 42.09 L 161.176 68.506 L 154.096 68.506 L 154.096 42.09 L 161.176 42.09 Z  M 153.681 35.254 L 153.681 35.254 L 153.681 35.254 Q 153.681 33.667 154.743 32.642 L 154.743 32.642 L 154.743 32.642 Q 155.805 31.616 157.636 31.616 L 157.636 31.616 L 157.636 31.616 Q 159.442 31.616 160.517 32.642 L 160.517 32.642 L 160.517 32.642 Q 161.591 33.667 161.591 35.254 L 161.591 35.254 L 161.591 35.254 Q 161.591 36.865 160.504 37.891 L 160.504 37.891 L 160.504 37.891 Q 159.418 38.916 157.636 38.916 L 157.636 38.916 L 157.636 38.916 Q 155.854 38.916 154.767 37.891 L 154.767 37.891 L 154.767 37.891 Q 153.681 36.865 153.681 35.254 Z  M 190.79 55.151 L 190.79 55.542 L 190.79 55.542 Q 190.79 61.89 188.08 65.442 L 188.08 65.442 L 188.08 65.442 Q 185.37 68.994 180.512 68.994 L 180.512 68.994 L 180.512 68.994 Q 176.215 68.994 173.651 65.698 L 173.651 65.698 L 173.334 68.506 L 166.986 68.506 L 166.986 31.006 L 174.042 31.006 L 174.042 44.458 L 174.042 44.458 Q 176.483 41.602 180.463 41.602 L 180.463 41.602 L 180.463 41.602 Q 185.297 41.602 188.043 45.154 L 188.043 45.154 L 188.043 45.154 Q 190.79 48.706 190.79 55.151 L 190.79 55.151 Z  M 183.734 55.029 L 183.734 55.029 L 183.734 55.029 Q 183.734 51.025 182.465 49.182 L 182.465 49.182 L 182.465 49.182 Q 181.195 47.339 178.681 47.339 L 178.681 47.339 L 178.681 47.339 Q 175.312 47.339 174.042 50.098 L 174.042 50.098 L 174.042 60.522 L 174.042 60.522 Q 175.336 63.306 178.729 63.306 L 178.729 63.306 L 178.729 63.306 Q 182.147 63.306 183.222 59.937 L 183.222 59.937 L 183.222 59.937 Q 183.734 58.325 183.734 55.029 Z  M 210.077 41.919 L 209.979 48.706 L 209.979 48.706 Q 208.539 48.511 207.44 48.511 L 207.44 48.511 L 207.44 48.511 Q 203.437 48.511 202.191 51.221 L 202.191 51.221 L 202.191 68.506 L 195.136 68.506 L 195.136 42.09 L 201.801 42.09 L 201.996 45.239 L 201.996 45.239 Q 204.12 41.602 207.88 41.602 L 207.88 41.602 L 207.88 41.602 Q 209.052 41.602 210.077 41.919 L 210.077 41.919 Z  M 235.81 68.506 L 228.681 68.506 L 228.681 68.506 Q 228.192 67.554 227.973 66.138 L 227.973 66.138 L 227.973 66.138 Q 225.409 68.994 221.308 68.994 L 221.308 68.994 L 221.308 68.994 Q 217.426 68.994 214.875 66.748 L 214.875 66.748 L 214.875 66.748 Q 212.323 64.502 212.323 61.084 L 212.323 61.084 L 212.323 61.084 Q 212.323 56.885 215.436 54.639 L 215.436 54.639 L 215.436 54.639 Q 218.549 52.393 224.433 52.368 L 224.433 52.368 L 227.68 52.368 L 227.68 50.854 L 227.68 50.854 Q 227.68 49.023 226.74 47.925 L 226.74 47.925 L 226.74 47.925 Q 225.8 46.826 223.773 46.826 L 223.773 46.826 L 223.773 46.826 Q 221.991 46.826 220.978 47.681 L 220.978 47.681 L 220.978 47.681 Q 219.965 48.535 219.965 50.024 L 219.965 50.024 L 212.909 50.024 L 212.909 50.024 Q 212.909 47.729 214.325 45.776 L 214.325 45.776 L 214.325 45.776 Q 215.741 43.823 218.329 42.712 L 218.329 42.712 L 218.329 42.712 Q 220.917 41.602 224.14 41.602 L 224.14 41.602 L 224.14 41.602 Q 229.022 41.602 231.891 44.055 L 231.891 44.055 L 231.891 44.055 Q 234.76 46.509 234.76 50.952 L 234.76 50.952 L 234.76 62.402 L 234.76 62.402 Q 234.784 66.162 235.81 68.091 L 235.81 68.091 L 235.81 68.506 Z  M 222.846 63.599 L 222.846 63.599 L 222.846 63.599 Q 224.408 63.599 225.727 62.903 L 225.727 62.903 L 225.727 62.903 Q 227.045 62.207 227.68 61.035 L 227.68 61.035 L 227.68 56.494 L 225.043 56.494 L 225.043 56.494 Q 219.745 56.494 219.403 60.156 L 219.403 60.156 L 219.379 60.571 L 219.379 60.571 Q 219.379 61.89 220.307 62.744 L 220.307 62.744 L 220.307 62.744 Q 221.234 63.599 222.846 63.599 Z  M 241.571 35.596 L 248.627 35.596 L 248.627 42.09 L 253.144 42.09 L 253.144 47.266 L 248.627 47.266 L 248.627 60.449 L 248.627 60.449 Q 248.627 61.914 249.188 62.549 L 249.188 62.549 L 249.188 62.549 Q 249.75 63.184 251.337 63.184 L 251.337 63.184 L 251.337 63.184 Q 252.509 63.184 253.412 63.013 L 253.412 63.013 L 253.412 68.359 L 253.412 68.359 Q 251.337 68.994 249.14 68.994 L 249.14 68.994 L 249.14 68.994 Q 241.718 68.994 241.571 61.499 L 241.571 61.499 L 241.571 47.266 L 237.714 47.266 L 237.714 42.09 L 241.571 42.09 L 241.571 35.596 Z  M 255.976 55.371 L 255.976 55.054 L 255.976 55.054 Q 255.976 51.123 257.489 48.047 L 257.489 48.047 L 257.489 48.047 Q 259.003 44.971 261.847 43.286 L 261.847 43.286 L 261.847 43.286 Q 264.691 41.602 268.451 41.602 L 268.451 41.602 L 268.451 41.602 Q 273.798 41.602 277.179 44.873 L 277.179 44.873 L 277.179 44.873 Q 280.561 48.145 280.951 53.76 L 280.951 53.76 L 281 55.566 L 281 55.566 Q 281 61.646 277.606 65.32 L 277.606 65.32 L 277.606 65.32 Q 274.213 68.994 268.5 68.994 L 268.5 68.994 L 268.5 68.994 Q 262.787 68.994 259.381 65.332 L 259.381 65.332 L 259.381 65.332 Q 255.976 61.67 255.976 55.371 L 255.976 55.371 Z  M 263.031 55.566 L 263.031 55.566 L 263.031 55.566 Q 263.031 59.326 264.447 61.316 L 264.447 61.316 L 264.447 61.316 Q 265.863 63.306 268.5 63.306 L 268.5 63.306 L 268.5 63.306 Q 271.063 63.306 272.504 61.34 L 272.504 61.34 L 272.504 61.34 Q 273.944 59.375 273.944 55.054 L 273.944 55.054 L 273.944 55.054 Q 273.944 51.367 272.504 49.341 L 272.504 49.341 L 272.504 49.341 Q 271.063 47.314 268.451 47.314 L 268.451 47.314 L 268.451 47.314 Q 265.863 47.314 264.447 49.329 L 264.447 49.329 L 264.447 49.329 Q 263.031 51.343 263.031 55.566 Z " fill-rule="evenodd" fill="rgb(255,255,255)"/><path d=" M 111.043 21.727 L 123.782 64.253 L 136.598 21.727 L 149.57 21.727 L 129.88 78.273 L 117.723 78.273 L 98.111 21.727 L 111.043 21.727 Z " fill="rgb(255,255,255)"/></g></svg>